<?xml version="1.0" encoding="utf-8"?>
<!-- Generator: Adobe Illustrator 25.4.1, SVG Export Plug-In . SVG Version: 6.00 Build 0)  -->
<svg version="1.1" id="Layer_1" xmlns="http://www.w3.org/2000/svg" xmlns:xlink="http://www.w3.org/1999/xlink" x="0px" y="0px"
	 viewBox="0 0 100 100" style="enable-background:new 0 0 100 100;" xml:space="preserve">
<style type="text/css">
	.st0{fill:#292F33;}
	.st1{fill:#66757F;}
	.st2{fill:#F5F8FA;}
	.st3{fill:#FFAC33;}
</style>
<path class="st0" d="M95.1,77.6c-2-2-10.7-7.4-19.3-12.1c4.7-6.7,7.5-14.9,7.5-23.8C83.3,18.7,64.7,0,41.7,0C18.7,0,0,18.7,0,41.7
	c0,23,18.7,41.7,41.7,41.7c8.8,0,16.9-2.7,23.6-7.4c4.7,8.6,10.2,17.3,12.1,19.3c3.9,3.9,8.7,4.7,11.5,4.7c3.3,0,11.3-8,11.1-11.1
	C99.9,86.1,99,81.5,95.1,77.6z"/>
<path class="st1" d="M41.7,75C60.1,75,75,60.1,75,41.7C75,23.3,60.1,8.3,41.7,8.3C23.3,8.3,8.3,23.3,8.3,41.7
	C8.3,60.1,23.3,75,41.7,75z"/>
<path class="st2" d="M44.4,69.4c13.5-4.3,11.1-13.9,11.1-25c0-11.1,11.1-18.6,0.9-27.1c-6-5-18.7-6.7-24.7-4.5
	c-5.4,2-12.4,6.1-12.4,14.5c0,8.3-0.2,8.1-4.7,15.6C7.4,54.9,25.3,75.5,44.4,69.4z"/>
<path class="st3" d="M36.1,61.1c6.1,0,11.1-5,11.1-11.1c0-6.1-5-11.1-11.1-11.1S25,43.9,25,50C25,56.1,30,61.1,36.1,61.1z"/>
</svg>
