<?xml version="1.0" encoding="utf-8"?>
<!-- Generator: Adobe Illustrator 25.4.1, SVG Export Plug-In . SVG Version: 6.00 Build 0)  -->
<svg version="1.1" id="Layer_1" xmlns="http://www.w3.org/2000/svg" xmlns:xlink="http://www.w3.org/1999/xlink" x="0px" y="0px"
	 viewBox="0 0 100 100" style="enable-background:new 0 0 100 100;" xml:space="preserve">
<style type="text/css">
	.st0{fill:#BF6952;}
	.st1{fill:#F5F8FA;}
	.st2{fill:#292F33;}
	.st3{fill:#F2ABBA;}
</style>
<path class="st0" d="M93.2,64.4c1-4.4,0.7-9.1-1.3-13.7c-1.9-4.5-5.1-8.1-9.1-10.5c0.9-3.3,0.7-6.9-0.9-10.4
	c-2.3-5.3-7.4-8.9-13.1-9.9c0.7-1.6,0.9-3.6,0.1-6C66.1,5.6,55,11.1,46.7,0c-6.8,4.1-8.3,10.1-8,15.2c-6.7,1.1-10.6,2.6-10.6,2.6v0
	c-3.8,1.5-6.5,5.2-6.5,9.6c0,2.4,0.9,4.7,2.3,6.4l-1.9,0.7l0,0c-6.5,2.4-11,8.3-11,15.1c0,2.9,0.8,5.6,2.3,8C5.5,61.2,0,68.8,0,77.8
	C0,90,10.3,100,22.9,100c9.1,0,18.2-2,26.5-4.6c6.2,2.9,15.8,4.6,30.3,4.6c11.3,0,20.4-9.1,20.4-20.4C100,73.6,97.4,68.2,93.2,64.4z
	"/>
<path class="st1" d="M37.5,55.6c5.4,0,9.7-5.6,9.7-12.5s-4.4-12.5-9.7-12.5c-5.4,0-9.7,5.6-9.7,12.5S32.1,55.6,37.5,55.6z"/>
<path class="st1" d="M65.3,55.6c5.4,0,9.7-5.6,9.7-12.5s-4.4-12.5-9.7-12.5s-9.7,5.6-9.7,12.5S59.9,55.6,65.3,55.6z"/>
<path class="st2" d="M38.9,50c3.1,0,5.6-3.1,5.6-6.9s-2.5-6.9-5.6-6.9c-3.1,0-5.6,3.1-5.6,6.9S35.8,50,38.9,50z"/>
<path class="st2" d="M63.9,50c3.1,0,5.6-3.1,5.6-6.9s-2.5-6.9-5.6-6.9c-3.1,0-5.6,3.1-5.6,6.9S60.8,50,63.9,50z"/>
<path class="st2" d="M26.2,69.2c-0.7-1.4,0-2.5,1.5-2.5h50c1.5,0,2.2,1.1,1.5,2.5c0,0-7.1,14.2-26.5,14.2
	C33.3,83.3,26.2,69.2,26.2,69.2z"/>
<path class="st3" d="M52.8,72.2c-7.7,0-14.3,2.6-17.5,6.3c4.1,2.7,9.8,4.8,17.5,4.8s13.3-2.2,17.5-4.8
	C67.1,74.8,60.5,72.2,52.8,72.2z"/>
</svg>
