<?xml version="1.0" encoding="utf-8"?>
<!-- Generator: Adobe Illustrator 25.4.1, SVG Export Plug-In . SVG Version: 6.00 Build 0)  -->
<svg version="1.1" id="Layer_1" xmlns="http://www.w3.org/2000/svg" xmlns:xlink="http://www.w3.org/1999/xlink" x="0px" y="0px"
	 viewBox="0 0 100 100" style="enable-background:new 0 0 100 100;" xml:space="preserve">
<style type="text/css">
	.st0{fill:#DD2E44;}
	.st1{fill:#77B255;}
</style>
<path class="st0" d="M61.2,15c-1.9,0-3.8,0.2-5.6,0.5c-2.3-0.3-7.7-0.6-10.1-0.6c-23.7,0-44.5,8.8-44.5,39.7
	c0,25.1,19.7,45.4,47.5,45.4c27.8,0,50.3-20.3,50.3-45.4C98.9,23.4,72.7,15,61.2,15z"/>
<path class="st1" d="M22.3,0c4.6,4.6,7.9,6.3,9.3,13.7c0.8,4.4,6.4,4.2,6.4,4.2S27,22.8,22.3,27.4c0,0,13.9-4.6,18.6-4.6
	c0,0,9.3,4.6,9.3,9.1c0,0,0-9.1-4.6-9.1c0,0,13.9,0,13.9,9.1c0,0,0-13.7-4.6-13.7c0,0,13.9-4.6,18.6,0c0,0-4.8-4.8-13.9-4.6
	c0,0,4.6-4.6,13.9-4.6c0,0-15-4.2-19.6,4.9c0,0-3.9-3.9,3.9-11.6c0,0-12.1,2.1-12.1,11.2c0,0-4.4-0.1-7.5-3.5C32,3.5,22.3,0,22.3,0z
	"/>
</svg>
